<svg width="30" height="40" viewBox="0 0 30 40" fill="none" xmlns="http://www.w3.org/2000/svg">
<path d="M26.8576 26.1476L23.0208 24.7166L20.5205 23.6909C20.2729 23.5892 20.012 23.58 19.7735 23.6484V21.2136C21.6505 19.8747 22.9717 17.77 23.3019 15.3447H23.6364C24.7333 15.3447 25.6741 14.5088 25.7784 13.4416C25.8368 12.8434 25.646 12.2463 25.255 11.8031C25.0658 11.5887 24.8374 11.4191 24.586 11.3004V6.74689C24.5861 3.02669 21.6351 0 18.0078 0H11.9923C8.36508 0 5.41405 3.02669 5.41405 6.74689V7.40357H1.16435C0.853524 7.40357 0.601536 7.66203 0.601536 7.98086C0.601536 8.29963 0.853524 8.55809 1.16435 8.55809H5.41412V9.21477C5.41412 9.53354 5.66611 9.792 5.97693 9.792C6.28776 9.792 6.53976 9.53354 6.53976 9.21477V8.55809H14.4421C12.815 9.61138 9.91842 11.1054 6.57834 11.1054H6.36354C5.26666 11.1054 4.32578 11.9414 4.22155 13.0084C4.16309 13.6065 4.35378 14.2037 4.74475 14.647C5.13594 15.0904 5.6947 15.3448 6.27756 15.3448H6.69762C7.02774 17.7709 8.34876 19.8758 10.2263 21.2145V23.6486C9.98784 23.5801 9.72702 23.5894 9.47928 23.6911L6.97902 24.7168L3.1423 26.1478C1.2628 26.8487 0 28.6978 0 30.749V38.8294C0 39.1481 0.25199 39.4066 0.562814 39.4066C0.873636 39.4066 1.12563 39.1481 1.12563 38.8294V30.7489C1.12563 29.1814 2.09066 27.7683 3.52697 27.2326L6.90534 25.9726C7.542 27.1726 9.48972 30.38 13.2341 32.8766V38.8294C13.2341 39.1481 13.4861 39.4066 13.7969 39.4066C14.1077 39.4066 14.3597 39.1481 14.3597 38.8294V30.769H15.6402V38.8294C15.6402 39.1481 15.8922 39.4066 16.2031 39.4066C16.5139 39.4066 16.7659 39.1481 16.7659 38.8294V32.8763C18.3784 31.801 19.835 30.4742 21.0985 28.9279C21.2982 28.6835 21.2669 28.3195 21.0287 28.1148C20.7904 27.9098 20.4354 27.942 20.2358 28.1864C19.2067 29.4458 18.0426 30.5509 16.7659 31.4813V29.1124C16.7659 28.7297 16.9354 28.3689 17.231 28.1225C18.7634 26.8454 19.6581 25.4801 20.0551 24.7799C20.0653 24.762 20.084 24.7554 20.1026 24.763L22.0318 25.5544C21.9356 25.7294 21.8139 25.9414 21.6658 26.1823C21.5 26.452 21.5788 26.8084 21.8417 26.9785C22.1046 27.1486 22.4521 27.0677 22.618 26.7981C22.8211 26.4678 22.9783 26.1876 23.0933 25.9722L26.473 27.2326C27.9094 27.7683 28.8744 29.1814 28.8744 30.749V38.8294C28.8744 39.1481 29.1263 39.4066 29.4372 39.4066C29.748 39.4066 30 39.1481 30 38.8294V30.7489C29.9998 28.6977 28.7371 26.8486 26.8576 26.1476ZM23.4605 6.74689V7.40357H20.375V6.74689C20.375 6.3848 20.6623 6.09024 21.0154 6.09024H23.4216C23.4463 6.30585 23.4605 6.52462 23.4605 6.74689ZM19.4423 8.55809C18.5834 9.15249 17.7335 9.51889 17.2052 9.7128L16.9237 8.55809H19.4423ZM22.1797 8.55809H23.4605V11.1054H22.82C22.4669 11.1054 22.1797 10.8108 22.1797 10.4487V8.55809ZM6.53976 6.74689C6.53976 3.66327 8.98578 1.15449 11.9924 1.15449H18.0079C20.3965 1.15449 22.4298 2.7386 23.1653 4.93575H21.0154C20.0416 4.93575 19.2494 5.74828 19.2494 6.74689V7.40357H6.53976V6.74689ZM7.74264 14.1505C7.74264 13.8317 7.4907 13.5732 7.17984 13.5732C6.86904 13.5732 6.61704 13.8317 6.61704 14.1505V14.1902H6.27756C6.01212 14.1902 5.75766 14.0743 5.57944 13.8722C5.39881 13.6676 5.31439 13.4016 5.34155 13.1234C5.38883 12.6392 5.8378 12.2598 6.36354 12.2598H6.57834C10.8904 12.2598 14.4172 10.0429 15.8654 8.97545L16.2586 10.5887C16.3226 10.851 16.5521 11.0261 16.8042 11.0261C16.8494 11.0261 16.8953 11.0204 16.9411 11.0087C17.0391 10.9836 19.2217 10.4091 21.0542 8.73631V10.4487C21.0542 11.4474 21.8465 12.2598 22.8202 12.2598H23.7224C23.9879 12.2598 24.2423 12.3757 24.4205 12.5777C24.6011 12.7825 24.6857 13.0484 24.6584 13.3265C24.6112 13.8108 24.1623 14.1902 23.6365 14.1902H23.3827V14.1564C23.3827 13.8377 23.1308 13.5792 22.8201 13.5791C22.82 13.5791 22.8199 13.5791 22.8199 13.5791C22.5092 13.5791 22.2572 13.8372 22.2571 14.1559C22.2541 18.2572 18.9986 21.5938 15.0001 21.5938C10.9982 21.5939 7.74264 18.2549 7.74264 14.1505ZM7.96962 25.5537L9.89724 24.7629C9.91578 24.7553 9.93456 24.7619 9.94476 24.7798C10.3417 25.48 11.2364 26.8453 12.7687 28.1223C13.0644 28.3688 13.2339 28.7296 13.2339 29.1123V31.4806C10.2516 29.3027 8.58576 26.6676 7.96962 25.5537ZM16.5211 27.2264C15.9613 27.693 15.6401 28.3804 15.6401 29.1122V29.6145H14.3596V29.1122C14.3596 28.3804 14.0385 27.693 13.4787 27.2263C12.4876 26.4002 11.7873 25.5231 11.3519 24.8892V21.8905C12.4555 22.4398 13.6932 22.7484 14.9999 22.7484C16.3066 22.7484 17.5444 22.4396 18.648 21.89V24.8892C18.2126 25.5231 17.5123 26.4002 16.5211 27.2264Z" fill="black"/>
</svg>
