<svg width="15" height="20" viewBox="0 0 15 20" fill="none" xmlns="http://www.w3.org/2000/svg">
<path d="M13.4288 13.0738L11.5104 12.3583L10.2603 11.8454C10.1364 11.7946 10.006 11.79 9.88677 11.8242V10.6068C10.8253 9.93735 11.4858 8.88501 11.6509 7.67237H11.8182C12.3667 7.67237 12.8371 7.2544 12.8892 6.7208C12.9184 6.42172 12.823 6.12314 12.6275 5.90157C12.5329 5.79434 12.4187 5.70954 12.293 5.65021V3.37345C12.293 1.51334 10.8176 0 9.0039 0H5.99613C4.18254 0 2.70702 1.51334 2.70702 3.37345V3.70178H0.582174C0.426762 3.70178 0.300768 3.83102 0.300768 3.99043C0.300768 4.14982 0.426762 4.27905 0.582174 4.27905H2.70706V4.60738C2.70706 4.76677 2.83305 4.896 2.98847 4.896C3.14388 4.896 3.26988 4.76677 3.26988 4.60738V4.27905H7.22106C6.40749 4.80569 4.95921 5.55271 3.28917 5.55271H3.18177C2.63333 5.55271 2.16289 5.97068 2.11078 6.50422C2.08155 6.80326 2.17689 7.10185 2.37237 7.32348C2.56797 7.5452 2.84735 7.6724 3.13878 7.6724H3.34881C3.51387 8.88545 4.17438 9.93788 5.11317 10.6073V11.8243C4.99392 11.7901 4.86351 11.7947 4.73964 11.8455L3.48951 12.3584L1.57115 13.0739C0.631401 13.4244 0 14.3489 0 15.3745V19.4147C0 19.5741 0.125995 19.7033 0.281407 19.7033C0.436818 19.7033 0.562815 19.5741 0.562815 19.4147V15.3745C0.562815 14.5907 1.04533 13.8842 1.76348 13.6163L3.45267 12.9863C3.771 13.5863 4.74486 15.19 6.61704 16.4383V19.4147C6.61704 19.5741 6.74304 19.7033 6.89844 19.7033C7.05387 19.7033 7.17984 19.5741 7.17984 19.4147V15.3845H7.8201V19.4147C7.8201 19.5741 7.9461 19.7033 8.10153 19.7033C8.25693 19.7033 8.38293 19.5741 8.38293 19.4147V16.4382C9.18921 15.9005 9.91752 15.2371 10.5493 14.4639C10.6491 14.3418 10.6335 14.1598 10.5143 14.0574C10.3952 13.9549 10.2177 13.971 10.1179 14.0932C9.60333 14.7229 9.0213 15.2754 8.38293 15.7406V14.5562C8.38293 14.3649 8.46768 14.1844 8.61552 14.0613C9.38169 13.4227 9.82905 12.74 10.0275 12.3899C10.0326 12.381 10.042 12.3777 10.0513 12.3815L11.0159 12.7772C10.9678 12.8647 10.907 12.9707 10.8329 13.0911C10.75 13.226 10.7894 13.4042 10.9208 13.4893C11.0523 13.5743 11.2261 13.5338 11.309 13.399C11.4105 13.2339 11.4892 13.0938 11.5466 12.9861L13.2365 13.6163C13.9547 13.8842 14.4372 14.5907 14.4372 15.3745V19.4147C14.4372 19.5741 14.5632 19.7033 14.7186 19.7033C14.874 19.7033 15 19.5741 15 19.4147V15.3745C14.9999 14.3488 14.3685 13.4243 13.4288 13.0738ZM11.7302 3.37345V3.70178H10.1875V3.37345C10.1875 3.1924 10.3312 3.04512 10.5077 3.04512H11.7108C11.7232 3.15292 11.7302 3.26231 11.7302 3.37345ZM9.72114 4.27905C9.29172 4.57625 8.86677 4.75945 8.60262 4.8564L8.46186 4.27905H9.72114ZM11.0899 4.27905H11.7302V5.55271H11.41C11.2335 5.55271 11.0899 5.40538 11.0899 5.22437V4.27905ZM3.26988 3.37345C3.26988 1.83164 4.49289 0.577246 5.99619 0.577246H9.00393C10.1982 0.577246 11.2149 1.3693 11.5827 2.46788H10.5077C10.0208 2.46788 9.62472 2.87414 9.62472 3.37345V3.70178H3.26988V3.37345ZM3.87132 7.07526C3.87132 6.91585 3.74535 6.78661 3.58992 6.78661C3.43452 6.78661 3.30852 6.91585 3.30852 7.07526V7.09511H3.13878C3.00606 7.09511 2.87883 7.03717 2.78972 6.93612C2.69941 6.83378 2.65719 6.7008 2.67078 6.56172C2.69441 6.3196 2.9189 6.12991 3.18177 6.12991H3.28917C5.44518 6.12991 7.20858 5.02145 7.93272 4.48772L8.12931 5.29434C8.16129 5.42548 8.27604 5.51305 8.4021 5.51305C8.42469 5.51305 8.44764 5.51021 8.47056 5.50434C8.51955 5.49178 9.61086 5.20455 10.5271 4.36815V5.22434C10.5271 5.72369 10.9232 6.12991 11.4101 6.12991H11.8612C11.9939 6.12991 12.1211 6.18785 12.2103 6.28886C12.3006 6.39123 12.3428 6.52418 12.3292 6.66326C12.3056 6.90538 12.0812 7.09508 11.8183 7.09508H11.6913V7.07818C11.6913 6.91883 11.5654 6.7896 11.4101 6.78954C11.41 6.78954 11.41 6.78954 11.4099 6.78954C11.2546 6.78954 11.1286 6.91862 11.1285 7.07797C11.1271 9.12858 9.49932 10.7969 7.50003 10.7969C5.49909 10.797 3.87132 9.12745 3.87132 7.07526ZM3.98481 12.7769L4.94862 12.3814C4.95789 12.3777 4.96728 12.381 4.97238 12.3899C5.17086 12.74 5.61819 13.4226 6.38436 14.0612C6.5322 14.1844 6.61695 14.3648 6.61695 14.5562V15.7403C5.1258 14.6514 4.29288 13.3338 3.98481 12.7769ZM8.26053 13.6132C7.98063 13.8465 7.82007 14.1902 7.82007 14.5561V14.8073H7.17981V14.5561C7.17981 14.1902 7.01925 13.8465 6.73935 13.6132C6.24378 13.2001 5.89365 12.7615 5.67597 12.4446V10.9453C6.22773 11.2199 6.8466 11.3742 7.49997 11.3742C8.15331 11.3742 8.77218 11.2198 9.324 10.945V12.4446C9.10629 12.7615 8.75613 13.2001 8.26053 13.6132Z" fill="black"/>
</svg>
