<svg width="1000" height="1157" viewBox="0 0 1000 1157" fill="none" xmlns="http://www.w3.org/2000/svg">
<rect x="69.5188" y="364.068" width="53.4758" height="144.385" rx="26.7379" fill="#6C6C6C" fill-opacity="0.06"/>
<rect x="69.5188" y="96.689" width="53.4758" height="245.989" rx="26.7379" fill="#6C6C6C" fill-opacity="0.06"/>
<rect x="141.711" y="-23.6312" width="53.4758" height="548.127" rx="26.7379" fill="#6C6C6C" fill-opacity="0.06"/>
<rect x="237.968" y="-37" width="53.4758" height="360.962" rx="26.7379" fill="#6C6C6C" fill-opacity="0.06"/>
<rect x="320.854" y="-37" width="53.4758" height="545.454" rx="26.7379" fill="#6C6C6C" fill-opacity="0.06"/>
<rect x="430.48" y="48.5611" width="53.4758" height="631.015" rx="26.7379" fill="#6C6C6C" fill-opacity="0.06"/>
<rect x="521.391" y="107.385" width="53.4758" height="604.277" rx="26.7379" fill="#6C6C6C" fill-opacity="0.06"/>
<rect x="521.391" y="722.357" width="53.4758" height="374.331" rx="26.7379" fill="#6C6C6C" fill-opacity="0.06"/>
<rect x="596.256" y="877.437" width="53.4758" height="360.962" rx="26.7379" fill="#6C6C6C" fill-opacity="0.06"/>
<rect x="596.256" y="746.421" width="53.4758" height="106.952" rx="26.7379" fill="#6C6C6C" fill-opacity="0.06"/>
<rect x="596.256" y="615.406" width="53.4758" height="106.952" rx="26.7379" fill="#6C6C6C" fill-opacity="0.06"/>
<rect x="598.93" y="59.2562" width="53.4758" height="532.085" rx="26.7379" fill="#6C6C6C" fill-opacity="0.06"/>
<rect x="689.838" y="83.3205" width="53.4758" height="770.052" rx="26.7379" fill="#6C6C6C" fill-opacity="0.06"/>
<rect x="778.072" y="144.818" width="53.4758" height="836.897" rx="26.7379" fill="#6C6C6C" fill-opacity="0.06"/>
<rect x="754.007" y="102.037" width="13.369" height="975.934" rx="6.68448" fill="#6C6C6C" fill-opacity="0.06"/>
<rect x="668.448" y="72.6251" width="13.369" height="1139.04" rx="6.68448" fill="#6C6C6C" fill-opacity="0.06"/>
<rect x="491.977" y="91.3423" width="13.369" height="676.469" rx="6.68448" fill="#6C6C6C" fill-opacity="0.06"/>
<rect x="390.375" y="32.5189" width="24.0641" height="508.02" rx="12.0321" fill="#6C6C6C" fill-opacity="0.06"/>
<rect x="689.838" y="877.437" width="53.4758" height="288.77" rx="26.7379" fill="#6C6C6C" fill-opacity="0.06"/>
<rect x="237.968" y="337.331" width="53.4758" height="80.2138" rx="26.7379" fill="#6C6C6C" fill-opacity="0.06"/>
<rect y="187.599" width="53.4758" height="106.952" rx="26.7379" fill="#6C6C6C" fill-opacity="0.06"/>
<rect y="297.224" width="53.4758" height="171.123" rx="26.7379" fill="#6C6C6C" fill-opacity="0.06"/>
<rect x="237.968" y="428.24" width="53.4758" height="80.2138" rx="26.7379" fill="#6C6C6C" fill-opacity="0.06"/>
<rect x="852.94" y="342.679" width="53.4758" height="328.876" rx="26.7379" fill="#6C6C6C" fill-opacity="0.06"/>
<rect x="946.524" y="425.566" width="53.4758" height="176.47" rx="26.7379" fill="#6C6C6C" fill-opacity="0.06"/>
</svg>
