<svg width="70" height="90" viewBox="0 0 70 90" fill="none" xmlns="http://www.w3.org/2000/svg">
<rect x="4.8667" y="28.0748" width="3.74332" height="10.107" rx="1.87166" fill="black"/>
<rect x="4.8667" y="9.35822" width="3.74332" height="17.2193" rx="1.87166" fill="black"/>
<rect x="9.91943" y="0.935852" width="3.74332" height="38.369" rx="1.87166" fill="black"/>
<rect x="16.6582" width="3.74332" height="25.2674" rx="1.87166" fill="black"/>
<rect x="22.46" width="3.74332" height="38.1818" rx="1.87166" fill="black"/>
<rect x="30.1333" y="5.98932" width="3.74332" height="44.1712" rx="1.87166" fill="black"/>
<rect x="36.4971" y="10.1069" width="3.74332" height="42.2995" rx="1.87166" fill="black"/>
<rect x="36.4971" y="53.1552" width="3.74332" height="26.2032" rx="1.87166" fill="black"/>
<rect x="41.7378" y="64.0107" width="3.74332" height="25.2674" rx="1.87166" fill="black"/>
<rect x="41.7378" y="54.8396" width="3.74332" height="7.48663" rx="1.87166" fill="black"/>
<rect x="41.7378" y="45.6685" width="3.74332" height="7.48663" rx="1.87166" fill="black"/>
<rect x="41.9248" y="6.73792" width="3.74332" height="37.246" rx="1.87166" fill="black"/>
<rect x="48.2891" y="8.42249" width="3.74332" height="53.9038" rx="1.87166" fill="black"/>
<rect x="54.4653" y="12.7273" width="3.74332" height="58.5829" rx="1.87166" fill="black"/>
<rect x="52.7808" y="9.73264" width="0.935829" height="68.3156" rx="0.467915" fill="black"/>
<rect x="46.7915" y="7.67377" width="0.935829" height="79.7327" rx="0.467915" fill="black"/>
<rect x="34.439" y="8.98395" width="0.935829" height="47.353" rx="0.467915" fill="black"/>
<rect x="27.3262" y="4.86633" width="1.68449" height="35.5615" rx="0.842246" fill="black"/>
<rect x="48.2891" y="64.0107" width="3.74332" height="20.2139" rx="1.87166" fill="black"/>
<rect x="16.6582" y="26.2032" width="3.74332" height="5.61498" rx="1.87166" fill="black"/>
<rect y="15.722" width="3.74332" height="7.48663" rx="1.87166" fill="black"/>
<rect y="23.3958" width="3.74332" height="11.9786" rx="1.87166" fill="black"/>
<rect x="16.6582" y="32.5669" width="3.74332" height="5.61498" rx="1.87166" fill="black"/>
<rect x="59.7056" y="26.5775" width="3.74332" height="23.0214" rx="1.87166" fill="black"/>
<rect x="66.2568" y="32.3797" width="3.74332" height="12.3529" rx="1.87166" fill="black"/>
</svg>
