<svg width="17" height="14" viewBox="0 0 17 14" fill="none" xmlns="http://www.w3.org/2000/svg">
<path d="M9.17962 8.5L12.8832 13.1295C12.9618 13.2277 13.069 13.299 13.1899 13.3337C13.3108 13.3683 13.4395 13.3645 13.5582 13.3229C13.6769 13.2812 13.7797 13.2037 13.8525 13.1011C13.9252 12.9985 13.9643 12.8758 13.9643 12.75V8.5H16.3929C16.5539 8.5 16.7083 8.43603 16.8222 8.32217C16.936 8.20831 17 8.05388 17 7.89286C17 7.73183 16.936 7.5774 16.8222 7.46354C16.7083 7.34968 16.5539 7.28571 16.3929 7.28571H13.9643V6.07143H16.3929C16.5539 6.07143 16.7083 6.00746 16.8222 5.8936C16.936 5.77974 17 5.62531 17 5.46429C17 5.30326 16.936 5.14883 16.8222 5.03497C16.7083 4.92111 16.5539 4.85714 16.3929 4.85714H13.9643V0.607143C13.9643 0.446119 13.9003 0.291689 13.7865 0.177828C13.6726 0.0639662 13.5182 0 13.3571 0C13.1961 0 13.0417 0.0639662 12.9278 0.177828C12.814 0.291689 12.75 0.446119 12.75 0.607143V4.85714H7.82038L4.11681 0.227679C4.03819 0.129484 3.93101 0.0581337 3.81009 0.0234861C3.68917 -0.0111616 3.56047 -0.00739523 3.44178 0.034265C3.32309 0.0759253 3.22027 0.153422 3.14753 0.256046C3.07478 0.35867 3.03571 0.481354 3.03571 0.607143V4.85714H0.607143C0.446119 4.85714 0.291689 4.92111 0.177828 5.03497C0.0639662 5.14883 0 5.30326 0 5.46429C0 5.62531 0.0639662 5.77974 0.177828 5.8936C0.291689 6.00746 0.446119 6.07143 0.607143 6.07143H3.03571V7.28571H0.607143C0.446119 7.28571 0.291689 7.34968 0.177828 7.46354C0.0639662 7.5774 0 7.73183 0 7.89286C0 8.05388 0.0639662 8.20831 0.177828 8.32217C0.291689 8.43603 0.446119 8.5 0.607143 8.5H3.03571V12.75C3.03571 12.911 3.09968 13.0655 3.21354 13.1793C3.3274 13.2932 3.48183 13.3571 3.64286 13.3571C3.80388 13.3571 3.95831 13.2932 4.07217 13.1793C4.18603 13.0655 4.25 12.911 4.25 12.75V8.5H9.17962ZM12.75 11.0192L10.7347 8.5H12.75V11.0192ZM12.75 6.07143V7.28571H9.76324L8.79181 6.07143H12.75ZM4.25 2.33796L6.26533 4.85714H4.25V2.33796ZM4.25 6.07143H7.23676L8.20819 7.28571H4.25V6.07143Z" fill="black"/>
</svg>
